<?xml version="1.0" encoding="UTF-8" standalone="no"?>
<!DOCTYPE svg PUBLIC "-//W3C//DTD SVG 1.1//EN" "http://www.w3.org/Graphics/SVG/1.1/DTD/svg11.dtd">
<svg width="100%" height="100%" viewBox="0 0 513 450" version="1.1" xmlns="http://www.w3.org/2000/svg" xmlns:xlink="http://www.w3.org/1999/xlink" xml:space="preserve" xmlns:serif="http://www.serif.com/" style="fill-rule:evenodd;clip-rule:evenodd;stroke-linejoin:round;stroke-miterlimit:2;">
    <g transform="matrix(4.16667,0,0,4.16667,-462.463,-747.954)">
        <g>
            <g>
                <g transform="matrix(1,0,0,1,187.247,281.008)">
                    <path d="M0,6.043C0.004,5.965 0.011,5.887 0.011,5.809L0.011,0L5.053,0L5.053,1.232L1.283,1.232L1.283,2.391L5.05,2.391L5.05,3.64L1.282,3.64L1.282,4.79L5.069,4.79L5.069,6.043L0,6.043Z" style="fill:rgb(187,189,192);fill-rule:nonzero;"/>
                </g>
                <g transform="matrix(1,0,0,1,155.853,281.006)">
                    <path d="M0,6.045L0.004,0.244L0.004,0L5.035,0L5.035,1.238L1.267,1.238L1.267,2.391L5.034,2.391L5.034,3.646L1.268,3.646L1.268,4.787L5.069,4.787L5.069,6.045L0,6.045Z" style="fill:rgb(187,189,192);fill-rule:nonzero;"/>
                </g>
                <g transform="matrix(1,0,0,1,169.615,283.967)">
                    <path d="M0,0.107C0.72,0.107 1.42,0.116 2.119,0.104C2.534,0.097 2.793,-0.134 2.846,-0.546C2.871,-0.742 2.859,-0.951 2.821,-1.146C2.755,-1.491 2.536,-1.678 2.183,-1.699C1.851,-1.719 1.517,-1.714 1.184,-1.717C0.793,-1.719 0.402,-1.717 0,-1.717L0,0.107ZM-1.267,3.084L-1.267,-2.963C-1.187,-2.967 -1.123,-2.973 -1.059,-2.973C-0.057,-2.973 0.944,-2.977 1.946,-2.972C2.598,-2.969 3.19,-2.799 3.631,-2.283C4.012,-1.838 4.131,-1.306 4.118,-0.734C4.099,0.04 3.829,0.677 3.134,1.085C3.083,1.114 3.029,1.137 2.976,1.162C2.93,1.183 2.884,1.202 2.822,1.229C3.259,1.855 3.687,2.47 4.116,3.084L2.584,3.084C2.204,2.54 1.825,1.995 1.444,1.452C1.417,1.414 1.367,1.369 1.328,1.368C0.886,1.362 0.445,1.364 -0.01,1.364L-0.01,3.084L-1.267,3.084Z" style="fill:rgb(187,189,192);fill-rule:nonzero;"/>
                </g>
                <g transform="matrix(1,0,0,1,177.321,285.74)">
                    <path d="M0,-3.514C-0.001,-3.507 -0.003,-3.501 -0.004,-3.494C-0.135,-3.487 -0.266,-3.484 -0.396,-3.472C-1.089,-3.413 -1.597,-3.035 -1.722,-2.396C-1.797,-2.013 -1.809,-1.602 -1.763,-1.214C-1.684,-0.562 -1.3,-0.114 -0.635,-0.008C-0.249,0.053 0.161,0.053 0.55,-0.001C1.101,-0.078 1.489,-0.408 1.65,-0.959C1.8,-1.472 1.797,-1.988 1.641,-2.5C1.498,-2.967 1.179,-3.267 0.711,-3.393C0.48,-3.455 0.237,-3.475 0,-3.514M-0.487,1.311C-0.657,1.274 -0.829,1.241 -0.998,1.198C-2.121,0.908 -2.771,0.175 -2.995,-0.945C-3.113,-1.536 -3.1,-2.13 -2.944,-2.711C-2.663,-3.757 -1.982,-4.411 -0.924,-4.646C-0.115,-4.825 0.69,-4.8 1.456,-4.448C2.353,-4.036 2.819,-3.3 2.962,-2.351C3.064,-1.678 3.034,-1.008 2.772,-0.368C2.373,0.603 1.617,1.111 0.599,1.27C0.551,1.278 0.504,1.297 0.456,1.311L-0.487,1.311Z" style="fill:rgb(187,189,192);fill-rule:nonzero;"/>
                </g>
                <g transform="matrix(1,0,0,1,182.374,283.976)">
                    <path d="M0,0.093C0.74,0.093 1.465,0.109 2.188,0.086C2.534,0.075 2.761,-0.14 2.82,-0.458C2.855,-0.647 2.862,-0.849 2.838,-1.039C2.781,-1.494 2.563,-1.697 2.101,-1.713C1.553,-1.733 1.003,-1.723 0.454,-1.726L0,-1.726L0,0.093ZM-1.257,3.076C-1.261,3.017 -1.267,2.959 -1.267,2.9C-1.268,1.012 -1.267,-0.876 -1.267,-2.764L-1.267,-2.982L-1.038,-2.982C-0.055,-2.982 0.927,-2.983 1.909,-2.981C2.347,-2.98 2.77,-2.911 3.153,-2.686C3.771,-2.323 4.05,-1.753 4.105,-1.066C4.167,-0.28 3.999,0.432 3.334,0.942C2.987,1.209 2.581,1.337 2.147,1.346C1.505,1.36 0.864,1.353 0.222,1.355L0,1.355L0,3.076L-1.257,3.076Z" style="fill:rgb(187,189,192);fill-rule:nonzero;"/>
                </g>
                <g transform="matrix(1,0,0,1,164.183,281.006)">
                    <path d="M0,6.045C-0.182,6 -0.366,5.963 -0.545,5.909C-1.51,5.619 -2.199,4.768 -2.228,3.732C-2.262,2.505 -2.239,1.277 -2.24,0.05C-2.24,0.037 -2.233,0.025 -2.225,0.002L-0.989,0.002L-0.989,0.386C-0.989,1.379 -0.99,2.371 -0.988,3.364C-0.987,3.507 -0.982,3.652 -0.955,3.792C-0.84,4.38 -0.55,4.676 0.044,4.753C0.338,4.792 0.647,4.787 0.938,4.739C1.462,4.653 1.785,4.278 1.847,3.748C1.868,3.561 1.88,3.371 1.88,3.182C1.884,2.196 1.882,1.21 1.882,0.224L1.882,0L3.122,0C3.127,0.054 3.136,0.104 3.136,0.153C3.137,1.23 3.142,2.308 3.134,3.385C3.13,4.002 3.004,4.589 2.619,5.096C2.218,5.625 1.666,5.891 1.026,6.003C0.984,6.011 0.945,6.031 0.904,6.045L0,6.045Z" style="fill:rgb(187,189,192);fill-rule:nonzero;"/>
                </g>
                <g transform="matrix(1,0,0,1,153.574,280.987)">
                    <path d="M0,6.064L0,5.047L-3.544,5.047C-3.378,4.594 -3.223,4.168 -3.068,3.741C-2.635,2.554 -2.201,1.367 -1.775,0.178C-1.727,0.044 -1.663,0 -1.523,0.003C-1.152,0.013 -0.781,0.007 -0.378,0.007C-0.837,1.277 -1.286,2.516 -1.741,3.775L-0.009,3.775L-0.009,2.08L1.257,2.08L1.257,6.064L0,6.064Z" style="fill:rgb(187,189,192);fill-rule:nonzero;"/>
                </g>
                <g transform="matrix(1,0,0,1,133.775,279.516)">
                    <path d="M0,-5.793C0.739,-5.793 1.479,-5.794 2.218,-5.793C2.636,-5.792 2.894,-5.545 2.895,-5.126C2.899,-3.644 2.898,-2.162 2.895,-0.68C2.894,-0.274 2.645,-0.009 2.237,-0.007C0.739,0.001 -0.76,0.001 -2.258,-0.006C-2.669,-0.009 -2.909,-0.274 -2.91,-0.681C-2.911,-2.163 -2.911,-3.645 -2.91,-5.126C-2.909,-5.546 -2.659,-5.792 -2.238,-5.793C-1.492,-5.794 -0.746,-5.793 0,-5.793" style="fill:rgb(187,189,192);fill-rule:nonzero;"/>
                </g>
                <g transform="matrix(1,0,0,1,141.162,287.069)">
                    <path d="M0,-5.793C0.739,-5.793 1.479,-5.794 2.218,-5.793C2.636,-5.792 2.894,-5.545 2.895,-5.126C2.899,-3.644 2.898,-2.162 2.895,-0.68C2.894,-0.274 2.645,-0.009 2.237,-0.007C0.739,0.001 -0.76,0.001 -2.258,-0.007C-2.669,-0.009 -2.909,-0.274 -2.91,-0.681C-2.911,-2.163 -2.911,-3.645 -2.91,-5.126C-2.909,-5.546 -2.659,-5.792 -2.238,-5.793C-1.492,-5.794 -0.746,-5.793 0,-5.793" style="fill:rgb(187,189,192);fill-rule:nonzero;"/>
                </g>
                <g transform="matrix(1,0,0,1,129.52,287.057)">
                    <path d="M0,-5.793C0.739,-5.793 1.479,-5.794 2.218,-5.793C2.636,-5.792 2.894,-5.545 2.895,-5.126C2.899,-3.644 2.898,-2.162 2.895,-0.68C2.894,-0.274 2.645,-0.009 2.237,-0.007C0.739,0.001 -0.76,0.001 -2.258,-0.006C-2.669,-0.009 -2.909,-0.274 -2.91,-0.681C-2.911,-2.163 -2.911,-3.645 -2.91,-5.126C-2.909,-5.546 -2.659,-5.792 -2.238,-5.793C-1.492,-5.794 -0.746,-5.793 0,-5.793" style="fill:rgb(187,189,192);fill-rule:nonzero;"/>
                </g>
                <g transform="matrix(1,0,0,1,141.157,279.515)">
                    <path d="M0,-5.792C0.74,-5.792 1.48,-5.793 2.22,-5.792C2.63,-5.791 2.892,-5.553 2.894,-5.142C2.901,-3.652 2.901,-2.162 2.894,-0.673C2.892,-0.256 2.631,-0.005 2.21,-0.004C0.73,0 -0.75,0.001 -2.23,-0.004C-2.664,-0.006 -2.906,-0.262 -2.906,-0.693C-2.907,-2.169 -2.907,-3.646 -2.906,-5.122C-2.906,-5.549 -2.664,-5.791 -2.24,-5.792C-1.493,-5.793 -0.747,-5.792 0,-5.792" style="fill:rgb(187,189,192);fill-rule:nonzero;"/>
                </g>
                <g transform="matrix(1,0,0,1,204.367,275.552)">
                    <path d="M0,2.441C0.533,1.617 1.05,0.817 1.567,0.017C1.945,-0.569 2.322,-1.157 2.706,-1.74C2.735,-1.784 2.807,-1.823 2.86,-1.825C3.141,-1.833 3.422,-1.829 3.718,-1.829L3.718,4.215L2.483,4.215L2.483,1.006C2.468,0.999 2.453,0.993 2.439,0.987C2.391,1.057 2.342,1.126 2.296,1.198C1.685,2.147 1.071,3.095 0.467,4.048C0.378,4.189 0.276,4.218 0.12,4.236C-0.222,4.274 -0.414,4.146 -0.593,3.851C-1.131,2.964 -1.708,2.1 -2.27,1.228C-2.322,1.148 -2.376,1.069 -2.459,0.944L-2.459,4.212L-3.711,4.212L-3.711,-1.827C-3.407,-1.827 -3.102,-1.833 -2.797,-1.821C-2.752,-1.82 -2.701,-1.745 -2.668,-1.694C-1.822,-0.383 -0.978,0.929 -0.134,2.24C-0.095,2.3 -0.055,2.359 0,2.441" style="fill:rgb(187,189,192);fill-rule:nonzero;"/>
                </g>
                <g transform="matrix(1,0,0,1,157.377,276.726)">
                    <path d="M0,0.044C0.775,0.044 1.538,0.06 2.301,0.036C2.568,0.027 2.75,-0.173 2.811,-0.44C2.848,-0.603 2.875,-0.777 2.861,-0.942C2.813,-1.525 2.56,-1.749 1.974,-1.752C1.372,-1.754 0.769,-1.753 0.167,-1.752C0.111,-1.752 0.055,-1.744 0,-1.739L0,0.044ZM-1.259,3.041L-1.259,-2.992C-1.21,-2.996 -1.172,-3.002 -1.134,-3.002C-0.054,-3.002 1.027,-3.018 2.107,-2.995C2.85,-2.98 3.489,-2.693 3.84,-2.006C4.264,-1.178 4.243,-0.333 3.757,0.475C3.548,0.823 3.219,1.036 2.82,1.196C3.25,1.808 3.671,2.408 4.108,3.032C4.038,3.042 3.992,3.053 3.945,3.054C3.546,3.055 3.146,3.062 2.747,3.048C2.662,3.045 2.55,2.983 2.499,2.912C2.154,2.437 1.818,1.955 1.486,1.47C1.42,1.373 1.35,1.333 1.231,1.335C0.826,1.342 0.422,1.337 -0.008,1.337L-0.008,3.041L-1.259,3.041Z" style="fill:rgb(187,189,192);fill-rule:nonzero;"/>
                </g>
                <g transform="matrix(1,0,0,1,195.656,276.716)">
                    <path d="M0,0.064C0.765,0.064 1.51,0.077 2.254,0.053C2.402,0.048 2.596,-0.061 2.682,-0.183C2.94,-0.546 2.934,-0.96 2.758,-1.357C2.609,-1.694 2.29,-1.742 1.964,-1.743C1.427,-1.745 0.89,-1.743 0.353,-1.743L0,-1.743L0,0.064ZM2.825,1.213C3.254,1.824 3.674,2.421 4.118,3.053C4.023,3.058 3.963,3.063 3.902,3.063C3.529,3.064 3.156,3.056 2.783,3.067C2.64,3.071 2.557,3.02 2.48,2.907C2.151,2.428 1.813,1.955 1.485,1.476C1.418,1.378 1.346,1.342 1.228,1.344C0.824,1.351 0.42,1.346 -0.001,1.346L-0.001,3.044L-1.25,3.044L-1.25,-2.979C-1.206,-2.983 -1.156,-2.993 -1.106,-2.993C-0.039,-2.993 1.028,-3.007 2.095,-2.987C2.815,-2.974 3.421,-2.699 3.81,-2.061C4.333,-1.205 4.275,0.421 3.157,1.044C3.055,1.101 2.949,1.15 2.825,1.213" style="fill:rgb(187,189,192);fill-rule:nonzero;"/>
                </g>
                <g transform="matrix(1,0,0,1,181.071,278.08)">
                    <path d="M0,-2.66C-0.407,-2.573 -0.801,-2.489 -1.206,-2.403C-1.428,-2.974 -1.941,-3.041 -2.443,-3.092C-2.926,-3.14 -3.411,-3.117 -3.884,-2.986C-3.996,-2.955 -4.108,-2.912 -4.209,-2.855C-4.505,-2.688 -4.512,-2.361 -4.206,-2.212C-3.993,-2.109 -3.753,-2.036 -3.518,-2.009C-3.064,-1.958 -2.603,-1.964 -2.148,-1.921C-1.536,-1.863 -0.943,-1.728 -0.474,-1.292C0.319,-0.555 0.194,0.662 -0.727,1.235C-1.135,1.489 -1.589,1.606 -2.061,1.656C-2.801,1.734 -3.539,1.734 -4.251,1.479C-4.9,1.246 -5.379,0.832 -5.589,0.154C-5.603,0.111 -5.607,0.065 -5.619,-0.002C-5.221,-0.088 -4.828,-0.172 -4.425,-0.259C-4.259,0.179 -3.892,0.322 -3.487,0.388C-2.893,0.485 -2.301,0.473 -1.718,0.312C-1.6,0.28 -1.484,0.226 -1.381,0.16C-1.143,0.007 -1.126,-0.288 -1.378,-0.409C-1.648,-0.538 -1.951,-0.628 -2.249,-0.667C-2.701,-0.726 -3.162,-0.713 -3.617,-0.757C-4.09,-0.802 -4.542,-0.933 -4.942,-1.199C-5.977,-1.886 -5.923,-3.316 -4.841,-3.931C-4.394,-4.185 -3.906,-4.296 -3.401,-4.335C-2.626,-4.394 -1.857,-4.376 -1.134,-4.036C-0.546,-3.76 -0.156,-3.318 0,-2.66" style="fill:rgb(187,189,192);fill-rule:nonzero;"/>
                </g>
                <g transform="matrix(1,0,0,1,170.231,277.51)">
                    <path d="M0,-1.509L0,2.254L-1.25,2.254L-1.25,-3.786C-0.965,-3.786 -0.685,-3.792 -0.406,-3.781C-0.354,-3.779 -0.296,-3.718 -0.255,-3.672C0.72,-2.589 1.693,-1.504 2.667,-0.42C2.776,-0.298 2.885,-0.178 3.03,-0.019L3.03,-3.775L4.281,-3.775L4.281,2.268C3.995,2.268 3.714,2.283 3.436,2.259C3.353,2.252 3.272,2.143 3.204,2.068C2.17,0.916 1.137,-0.239 0.105,-1.393C0.083,-1.417 0.061,-1.441 0,-1.509" style="fill:rgb(187,189,192);fill-rule:nonzero;"/>
                </g>
                <g transform="matrix(1,0,0,1,188.784,276.711)">
                    <path d="M0,0.034C0.005,0.035 0.009,0.035 0.014,0.036C0.02,0.16 0.024,0.284 0.033,0.407C0.086,1.096 0.483,1.584 1.134,1.741C1.572,1.847 2.017,1.847 2.455,1.742C3.012,1.609 3.367,1.261 3.501,0.699C3.607,0.253 3.608,-0.193 3.497,-0.637C3.361,-1.179 3.024,-1.539 2.476,-1.652C2.166,-1.717 1.839,-1.742 1.523,-1.726C0.74,-1.686 0.244,-1.289 0.084,-0.604C0.036,-0.396 0.027,-0.179 0,0.034M1.889,3.073C1.257,3.055 0.724,2.988 0.227,2.734C-0.41,2.408 -0.845,1.906 -1.061,1.229C-1.306,0.464 -1.318,-0.317 -1.081,-1.083C-0.745,-2.174 0.036,-2.767 1.144,-2.943C1.751,-3.039 2.359,-3.018 2.949,-2.828C3.865,-2.532 4.452,-1.908 4.704,-0.985C4.893,-0.292 4.895,0.414 4.693,1.103C4.375,2.184 3.628,2.805 2.525,3.003C2.288,3.046 2.045,3.057 1.889,3.073" style="fill:rgb(187,189,192);fill-rule:nonzero;"/>
                </g>
                <g transform="matrix(1,0,0,1,164.128,275.688)">
                    <path d="M0,2.14L1.854,2.14C1.544,1.471 1.245,0.824 0.931,0.146C0.615,0.824 0.311,1.474 0,2.14M4.149,4.092C3.692,4.092 3.274,4.094 2.856,4.089C2.814,4.088 2.766,4.049 2.735,4.015C2.705,3.983 2.684,3.937 2.675,3.894C2.58,3.45 2.291,3.376 1.876,3.395C1.118,3.43 0.358,3.408 -0.401,3.402C-0.527,3.401 -0.62,3.42 -0.651,3.555C-0.76,4.025 -1.059,4.171 -1.521,4.099C-1.757,4.062 -2.003,4.092 -2.282,4.092C-2.195,3.897 -2.122,3.728 -2.044,3.562C-1.208,1.766 -0.371,-0.029 0.461,-1.826C0.511,-1.933 0.566,-1.972 0.68,-1.966C0.895,-1.956 1.158,-2.031 1.314,-1.933C1.468,-1.836 1.518,-1.571 1.609,-1.377C2.403,0.33 3.196,2.037 3.99,3.744C4.038,3.849 4.086,3.955 4.149,4.092" style="fill:rgb(187,189,192);fill-rule:nonzero;"/>
                </g>
                <g transform="matrix(1,0,0,1,187.01,279.762)">
                    <path d="M0,-6.024L0,-4.791L-3.762,-4.791L-3.762,-3.648L-0.35,-3.648L-0.35,-2.394L-3.763,-2.394L-3.763,0L-5.015,0L-5.015,-6.024L0,-6.024Z" style="fill:rgb(187,189,192);fill-rule:nonzero;"/>
                </g>
                <g transform="matrix(1,0,0,1,155.243,279.768)">
                    <path d="M0,-6.033L0,-4.803L-1.979,-4.803L-1.979,0L-3.232,0L-3.232,-4.787L-5.188,-4.787L-5.188,-6.033L0,-6.033Z" style="fill:rgb(187,189,192);fill-rule:nonzero;"/>
                </g>
            </g>
            <g transform="matrix(0.636165,0,0,0.636165,-34.6342,120.873)">
                <g transform="matrix(1,0,0,1,310.66,142.125)">
                    <path d="M0,45.505L0.169,45.122C0.227,44.992 0.183,44.911 0.123,44.865C0.071,44.823 -0.008,44.857 -0.07,44.937L-1.109,46.281C-1.177,46.369 -1.159,46.441 -1.106,46.482C-1.026,46.544 -0.959,46.526 -0.853,46.444L-0.559,46.228C-0.494,46.185 -0.438,46.181 -0.365,46.238L2.849,48.723L2.837,48.737L-2.991,48.713L-3.73,49.67C-3.792,49.75 -3.804,49.834 -3.751,49.875C-3.691,49.922 -3.603,49.944 -3.491,49.855L-3.163,49.595C-3.104,49.547 -3.012,49.537 -2.939,49.594L0.873,52.541C0.946,52.597 0.96,52.689 0.927,52.758L0.759,53.141C0.701,53.271 0.744,53.352 0.804,53.397C0.857,53.439 0.935,53.406 0.998,53.326L2.037,51.982C2.105,51.894 2.086,51.821 2.033,51.781C1.954,51.719 1.886,51.737 1.781,51.819L1.486,52.035C1.421,52.078 1.366,52.082 1.293,52.025L-1.995,49.484L-1.983,49.469L3.98,49.469L4.324,49.024L0.055,45.722C-0.018,45.666 -0.032,45.574 0,45.505M-7.264,57.656L-8.053,55.123L-8.039,55.111L-5.807,56.522L-7.264,57.656ZM-2.926,56.855L-3.251,56.98C-3.312,57.006 -3.384,56.988 -3.453,56.945L-8.422,53.943L-8.925,54.333L-7.303,59.74C-7.228,59.958 -7.234,60.069 -7.266,60.104L-7.488,60.405C-7.596,60.552 -7.601,60.62 -7.56,60.674C-7.513,60.733 -7.433,60.745 -7.339,60.672L-6.034,59.657C-5.939,59.583 -5.925,59.497 -5.976,59.431C-6.018,59.378 -6.085,59.366 -6.227,59.424L-6.537,59.537C-6.591,59.558 -6.649,59.528 -6.675,59.495C-6.7,59.462 -6.73,59.379 -6.747,59.328L-7.075,58.275L-5.253,56.857L-4.262,57.469C-4.211,57.504 -4.166,57.532 -4.15,57.553C-4.119,57.592 -4.113,57.63 -4.156,57.695L-4.297,57.921C-4.41,58.106 -4.438,58.159 -4.397,58.212C-4.351,58.272 -4.264,58.279 -4.169,58.205L-2.705,57.065C-2.632,57.008 -2.592,56.924 -2.648,56.851C-2.7,56.785 -2.784,56.797 -2.926,56.855M-9.223,60.544C-9.283,60.442 -9.376,60.448 -9.487,60.513C-9.599,60.579 -9.625,60.662 -9.644,60.848L-9.722,61.575C-9.729,61.637 -9.734,61.737 -9.821,61.788L-11.614,62.838L-11.418,56.323L-14.732,58.264L-14.449,59.149C-14.431,59.216 -14.401,59.286 -14.367,59.344C-14.316,59.431 -14.211,59.428 -14.083,59.353C-14.012,59.311 -13.976,59.261 -13.971,59.18L-13.909,58.463C-13.899,58.37 -13.85,58.273 -13.762,58.221L-12.256,57.339L-12.453,63.855L-8.892,61.769L-9.127,60.856C-9.144,60.789 -9.173,60.63 -9.223,60.544M-17.998,62.887L-18.528,63.102L-19.406,60.949L-18.756,60.684C-17.926,60.347 -17.44,60.611 -17.174,61.264C-16.86,62.034 -17.34,62.618 -17.998,62.887M-14.351,64.473L-14.688,64.502C-14.766,64.506 -14.821,64.493 -14.881,64.444L-16.926,62.803C-16.373,62.324 -16.112,61.52 -16.356,60.922C-16.761,59.927 -17.621,59.678 -18.843,60.176L-20.844,60.992C-20.972,61.044 -21.068,61.128 -21.023,61.237C-20.994,61.307 -20.913,61.31 -20.79,61.296L-20.393,61.243C-20.318,61.231 -20.239,61.253 -20.182,61.393L-18.396,65.777C-18.339,65.917 -18.38,65.988 -18.442,66.031L-18.763,66.271C-18.861,66.347 -18.917,66.406 -18.888,66.476C-18.845,66.585 -18.718,66.579 -18.589,66.526L-16.887,65.833C-16.785,65.791 -16.764,65.719 -16.789,65.657C-16.827,65.564 -16.895,65.546 -17.028,65.563L-17.39,65.603C-17.468,65.607 -17.518,65.582 -17.575,65.443L-18.338,63.569L-17.697,63.308L-15.357,65.209L-14.151,64.718C-14.074,64.687 -14.01,64.624 -14.042,64.547C-14.077,64.461 -14.132,64.448 -14.351,64.473M-14.308,16.984C-14.308,14.23 -16.03,11.646 -18.731,10.291C-19.976,9.662 -21.288,9.293 -23.184,9.102L-23.184,12.115C-21.171,13.021 -19.995,14.902 -19.995,17.237C-19.995,19.576 -21.167,21.402 -23.184,22.465C-24.356,23.084 -25.815,23.441 -27.497,23.493C-27.64,23.498 -27.778,23.507 -27.924,23.507L-33.51,23.501L-33.51,11.387L-27.81,11.393C-27.698,11.393 -27.605,11.401 -27.497,11.401L-27.497,8.935L-42.013,8.929C-43.048,8.929 -43.508,9.141 -43.508,9.65C-43.508,10.031 -43.162,10.327 -42.645,10.455L-40.117,10.963C-39.37,11.132 -39.083,11.513 -39.083,12.234L-39.083,31.54C-38.254,31.682 -37.369,31.759 -36.441,31.759C-35.396,31.759 -34.419,31.653 -33.51,31.465L-33.51,26.001L-28.441,26.006C-28.139,26.006 -27.844,25.99 -27.548,25.978C-26.024,25.92 -24.569,25.713 -23.219,25.377C-17.976,24.068 -14.308,20.84 -14.308,16.984M13.57,17.614C13.56,17.522 13.498,17.418 13.415,17.426C13.332,17.435 13.305,17.503 13.272,17.664L13.205,17.987C13.176,18.111 13.147,18.16 13.088,18.166C13.005,18.175 12.878,18.17 12.769,18.173L8.687,18.209L8.685,18.191L13.38,15.824L13.325,15.319L8.164,13.78L8.162,13.762L12.183,13.073C12.282,13.053 12.381,13.033 12.456,13.025C12.573,13.012 12.644,13.051 12.69,13.158L12.825,13.478C12.893,13.638 12.949,13.687 13.041,13.678C13.099,13.671 13.145,13.629 13.133,13.519L12.928,11.591C12.915,11.472 12.858,11.413 12.766,11.422C12.7,11.43 12.648,11.5 12.628,11.633L12.566,11.992C12.549,12.077 12.511,12.119 12.438,12.136L7.982,13.029C7.875,13.05 7.76,13.08 7.644,13.093C7.527,13.105 7.455,12.992 7.407,12.858L7.335,12.652C7.273,12.464 7.22,12.441 7.137,12.451C7.077,12.457 7.019,12.538 7.036,12.702L7.182,14.07L12.198,15.588L7.6,17.991L7.746,19.358C7.764,19.524 7.838,19.59 7.896,19.584C7.988,19.574 8.025,19.524 8.049,19.345L8.076,19.128C8.096,18.996 8.126,18.882 8.259,18.867C8.376,18.855 8.495,18.87 8.605,18.867L13.157,18.884C13.225,18.886 13.272,18.936 13.317,19.043L13.45,19.335C13.516,19.477 13.563,19.518 13.629,19.511C13.721,19.501 13.765,19.432 13.752,19.312L13.57,17.614ZM-28.063,62.867L-29.691,63.015C-29.81,63.026 -29.869,63.09 -29.864,63.149C-29.856,63.241 -29.805,63.287 -29.73,63.297L-29.46,63.323C-29.3,63.342 -29.237,63.421 -29.232,63.471C-29.228,63.521 -29.242,63.565 -29.256,63.616L-30.418,67.869L-30.436,67.87L-32.304,63.953C-32.327,63.904 -32.36,63.848 -32.365,63.79C-32.371,63.723 -32.349,63.653 -32.107,63.564L-31.919,63.496C-31.846,63.473 -31.805,63.418 -31.814,63.327C-31.819,63.268 -31.889,63.216 -32.008,63.226L-33.911,63.399C-34.003,63.408 -34.082,63.457 -34.074,63.549C-34.067,63.633 -33.989,63.668 -33.838,63.696L-33.612,63.734C-33.424,63.768 -33.362,63.83 -33.25,64.055L-30.707,69.168L-30.164,69.118L-28.528,63.466C-28.507,63.388 -28.467,63.325 -28.404,63.302L-28.082,63.172C-27.939,63.117 -27.869,63.069 -27.876,62.985C-27.885,62.893 -27.972,62.859 -28.063,62.867M4.366,44.699L2.678,42.651L2.688,42.635L5.288,43.099L4.366,44.699ZM8.335,42.212C8.263,42.17 8.19,42.213 8.079,42.32L7.826,42.558C7.78,42.605 7.706,42.615 7.626,42.602L1.89,41.697L1.572,42.249L5.116,46.643C5.268,46.817 5.303,46.922 5.288,46.967L5.195,47.329C5.152,47.506 5.172,47.571 5.231,47.604C5.296,47.643 5.374,47.623 5.434,47.519L6.259,46.088C6.319,45.983 6.3,45.898 6.227,45.856C6.17,45.823 6.103,45.837 5.992,45.944L5.748,46.166C5.707,46.206 5.642,46.201 5.605,46.18C5.569,46.159 5.51,46.092 5.476,46.051L4.775,45.2L5.926,43.2L7.075,43.393C7.134,43.406 7.187,43.415 7.21,43.428C7.253,43.453 7.273,43.485 7.258,43.562L7.214,43.824C7.177,44.038 7.172,44.099 7.23,44.132C7.295,44.169 7.379,44.143 7.439,44.039L8.365,42.43C8.411,42.35 8.415,42.258 8.335,42.212M13.456,21.662C13.38,21.659 13.343,21.731 13.304,21.849L13.186,22.232C13.165,22.306 13.112,22.368 12.962,22.361L8.232,22.145C8.081,22.138 8.034,22.071 8.021,21.997L7.938,21.605C7.91,21.483 7.879,21.408 7.804,21.405C7.686,21.4 7.64,21.518 7.633,21.656L7.551,23.464C7.544,23.602 7.581,23.724 7.698,23.729C7.774,23.733 7.811,23.66 7.849,23.542L7.967,23.159C7.988,23.086 8.042,23.024 8.192,23.031L12.921,23.246C13.072,23.253 13.12,23.32 13.133,23.394L13.216,23.786C13.244,23.908 13.274,23.983 13.349,23.986C13.467,23.992 13.514,23.874 13.521,23.736L13.602,21.928C13.609,21.789 13.573,21.668 13.456,21.662M8.471,34.209L8.237,34.948L5.956,34.228L6.167,33.559C6.431,32.723 6.943,32.497 7.623,32.711C8.456,32.974 8.707,33.46 8.471,34.209M11.249,35.222C11.153,35.191 11.097,35.231 11.026,35.345L10.824,35.649C10.777,35.712 10.726,35.734 10.639,35.706L8.717,35.1L8.956,34.343C9.265,33.365 8.978,32.21 7.882,31.864C6.865,31.543 6.117,32.043 5.798,33.055L5.069,35.362C5.028,35.495 5.032,35.622 5.145,35.657C5.217,35.68 5.271,35.619 5.339,35.515L5.551,35.175C5.59,35.11 5.658,35.063 5.802,35.109L10.315,36.534C10.46,36.58 10.488,36.657 10.483,36.732L10.461,37.132C10.457,37.256 10.467,37.337 10.539,37.36C10.652,37.395 10.727,37.293 10.769,37.161L11.322,35.409C11.356,35.303 11.313,35.242 11.249,35.222M9.821,28.275L9.728,28.839L7.435,28.462L7.548,27.77C7.694,26.886 8.173,26.609 8.869,26.723C9.688,26.858 9.937,27.573 9.821,28.275M13.305,25.769C13.214,25.754 13.173,25.794 13.08,25.994L12.928,26.296C12.892,26.365 12.851,26.406 12.778,26.431L10.311,27.316C10.191,26.595 9.642,25.952 9.004,25.848C7.944,25.673 7.284,26.276 7.069,27.579L6.719,29.711C6.696,29.847 6.718,29.972 6.834,29.992C6.908,30.004 6.954,29.936 7.006,29.823L7.169,29.457C7.197,29.387 7.257,29.331 7.406,29.356L12.078,30.124C12.227,30.149 12.266,30.221 12.271,30.296L12.307,30.695C12.32,30.819 12.342,30.897 12.416,30.909C12.533,30.928 12.593,30.817 12.616,30.681L12.914,28.867C12.931,28.758 12.881,28.703 12.815,28.692C12.715,28.675 12.665,28.724 12.611,28.846L12.455,29.175C12.418,29.245 12.371,29.274 12.222,29.25L10.226,28.921L10.338,28.238L13.182,27.236L13.393,25.952C13.407,25.87 13.387,25.783 13.305,25.769M-21.537,66.005C-21.645,66.031 -21.703,66.106 -21.739,66.192L-22.043,66.925C-22.081,67.003 -22.145,67.088 -22.244,67.112L-23.875,67.514C-24.001,67.545 -24.089,67.497 -24.117,67.383L-24.623,65.329L-23.072,64.948C-22.937,64.914 -22.839,64.925 -22.773,65.039L-22.599,65.323C-22.55,65.407 -22.484,65.443 -22.386,65.418C-22.242,65.383 -22.195,65.338 -22.23,65.199L-22.563,63.846C-22.597,63.707 -22.659,63.688 -22.803,63.723C-22.901,63.747 -22.943,63.81 -22.948,63.906L-22.97,64.24C-22.976,64.371 -23.058,64.426 -23.192,64.459L-24.743,64.84L-25.26,62.737L-23.413,62.283C-23.315,62.259 -23.251,62.286 -23.199,62.342L-22.865,62.736C-22.783,62.837 -22.701,62.86 -22.63,62.842C-22.513,62.813 -22.458,62.687 -22.482,62.59C-22.498,62.525 -22.514,62.459 -22.539,62.396L-22.825,61.62L-26.69,62.57C-26.824,62.604 -26.931,62.673 -26.903,62.787C-26.885,62.86 -26.805,62.875 -26.68,62.879L-26.28,62.885C-26.204,62.883 -26.129,62.916 -26.093,63.063L-24.962,67.66C-24.926,67.807 -24.976,67.871 -25.044,67.905L-25.397,68.095C-25.505,68.157 -25.569,68.207 -25.551,68.281C-25.523,68.395 -25.397,68.407 -25.262,68.374L-21.335,67.408L-21.315,66.408C-21.313,66.296 -21.309,66.199 -21.327,66.126C-21.345,66.052 -21.457,65.985 -21.537,66.005M1.959,-5.863L2.136,-4.437C2.192,-3.972 2.049,-3.558 1.765,-3.363C1.289,-3.034 0.715,-3.334 0.39,-3.805C0.149,-4.155 0.05,-4.49 0.187,-4.72L0.444,-5.132C0.524,-5.266 0.552,-5.375 0.478,-5.482C0.411,-5.58 0.29,-5.621 0.165,-5.535C0.124,-5.506 0.062,-5.463 0.019,-5.423L-0.59,-4.902C-0.531,-4.416 -0.282,-3.892 -0.004,-3.489C0.499,-2.759 1.484,-2.159 2.396,-2.788C2.935,-3.16 3.088,-3.692 3.013,-4.391L2.861,-5.856C2.824,-6.19 2.936,-6.648 3.226,-6.848C3.786,-7.234 4.484,-6.976 4.846,-6.452C5.181,-5.965 5.196,-5.706 5.055,-5.452L4.719,-4.816C4.651,-4.691 4.595,-4.597 4.674,-4.483C4.752,-4.368 4.847,-4.366 4.971,-4.452C5.012,-4.48 5.075,-4.523 5.117,-4.564L5.87,-5.262C5.825,-5.77 5.549,-6.319 5.255,-6.745C4.589,-7.71 3.338,-8.003 2.584,-7.483C2.052,-7.116 1.877,-6.513 1.959,-5.863M-4.431,-9.81C-4.505,-9.804 -4.58,-9.823 -4.623,-9.846L-4.966,-10.069C-5.085,-10.148 -5.159,-10.142 -5.215,-10.091C-5.289,-10.022 -5.258,-9.939 -5.176,-9.851L-4.03,-8.608C-3.949,-8.52 -3.868,-8.52 -3.806,-8.577C-3.757,-8.622 -3.751,-8.715 -3.809,-8.814L-3.921,-9.011C-3.959,-9.076 -3.96,-9.139 -3.904,-9.19C-3.867,-9.224 -3.811,-9.238 -3.743,-9.238L-0.856,-9.364L-0.843,-9.351L-2.477,-7.843C-2.589,-7.74 -2.67,-7.753 -2.732,-7.796L-3.069,-8.013C-3.175,-8.079 -3.251,-8.11 -3.306,-8.059C-3.392,-7.979 -3.342,-7.862 -3.247,-7.761L-2.021,-6.431C-1.927,-6.329 -1.814,-6.269 -1.728,-6.349C-1.672,-6.4 -1.698,-6.477 -1.754,-6.588L-1.943,-6.941C-1.981,-7.007 -1.988,-7.089 -1.876,-7.191L1.602,-10.401C1.713,-10.504 1.794,-10.491 1.857,-10.448L2.194,-10.231C2.3,-10.165 2.374,-10.134 2.43,-10.185C2.516,-10.265 2.466,-10.382 2.372,-10.484L1.145,-11.813C1.051,-11.915 0.938,-11.975 0.852,-11.895C0.797,-11.844 0.822,-11.767 0.878,-11.656L1.067,-11.303C1.106,-11.237 1.112,-11.155 1.001,-11.053L-0.831,-9.362L-0.844,-9.376L-0.377,-12.596C-0.365,-12.669 -0.352,-12.731 -0.322,-12.759C-0.285,-12.793 -0.236,-12.789 -0.135,-12.718L-0.036,-12.647C0.071,-12.568 0.183,-12.547 0.251,-12.609C0.294,-12.649 0.293,-12.736 0.206,-12.831L-1.141,-14.29C-1.203,-14.358 -1.291,-14.391 -1.359,-14.328C-1.42,-14.271 -1.401,-14.188 -1.332,-14.051L-1.18,-13.738C-1.136,-13.641 -1.111,-13.577 -1.117,-13.534L-1.624,-9.925L-4.431,-9.81ZM11.027,6.29C11.397,7.471 10.777,8.555 9.183,9.054C7.565,9.561 6.415,8.866 6.093,7.835C5.723,6.654 6.342,5.57 7.936,5.071C9.554,4.565 10.704,5.259 11.027,6.29M7.638,4.12C6.004,4.631 5.033,6.135 5.612,7.986C6.147,9.695 7.903,10.5 9.481,10.006C11.115,9.494 12.087,7.99 11.507,6.14C10.972,4.43 9.216,3.626 7.638,4.12M-35.484,63.4L-37.292,63.341C-37.431,63.336 -37.552,63.374 -37.556,63.491C-37.558,63.567 -37.486,63.603 -37.367,63.641L-36.983,63.754C-36.909,63.773 -36.847,63.825 -36.851,63.976L-37.006,68.708C-37.011,68.859 -37.078,68.907 -37.152,68.922L-37.543,69.009C-37.664,69.039 -37.739,69.07 -37.742,69.146C-37.745,69.263 -37.627,69.309 -37.488,69.314L-35.68,69.373C-35.541,69.378 -35.42,69.34 -35.416,69.222C-35.413,69.147 -35.486,69.111 -35.605,69.073L-35.99,68.96C-36.063,68.941 -36.125,68.888 -36.121,68.737L-35.965,64.005C-35.961,63.855 -35.894,63.806 -35.82,63.792L-35.429,63.705C-35.308,63.674 -35.233,63.644 -35.23,63.567C-35.227,63.45 -35.345,63.405 -35.484,63.4M3.904,2.005L3.588,1.379C3.184,0.58 3.408,0.073 4.038,-0.244C4.78,-0.619 5.401,-0.188 5.722,0.447L5.98,0.958L3.904,2.005ZM7.066,-2.982C7.076,-2.905 7.067,-2.849 7.024,-2.785L5.552,-0.615C5.03,-1.128 4.208,-1.323 3.631,-1.032C2.672,-0.548 2.493,0.329 3.088,1.507L4.062,3.436C4.124,3.56 4.216,3.648 4.321,3.595C4.388,3.561 4.385,3.48 4.36,3.357L4.276,2.966C4.257,2.892 4.274,2.812 4.409,2.744L8.635,0.611C8.769,0.542 8.844,0.578 8.892,0.636L9.156,0.936C9.241,1.029 9.304,1.08 9.371,1.046C9.476,0.993 9.459,0.867 9.397,0.743L8.569,-0.897C8.519,-0.996 8.445,-1.011 8.386,-0.98C8.296,-0.935 8.284,-0.867 8.312,-0.736L8.38,-0.378C8.391,-0.301 8.37,-0.248 8.236,-0.18L6.429,0.731L6.117,0.113L7.824,-2.373L7.237,-3.535C7.201,-3.609 7.133,-3.668 7.058,-3.63C6.976,-3.588 6.967,-3.532 7.01,-3.316L7.066,-2.982ZM-8.154,-15.045C-8.075,-14.981 -8,-14.986 -7.921,-15.041L-7.642,-15.226C-7.534,-15.301 -7.442,-15.27 -7.334,-15.183L-6.087,-14.183L-7.443,-12.494L-8.927,-13.684C-9.006,-13.748 -9.023,-13.815 -9.009,-13.89L-8.9,-14.396C-8.87,-14.522 -8.901,-14.6 -8.959,-14.647C-9.052,-14.722 -9.185,-14.689 -9.248,-14.61C-9.291,-14.558 -9.333,-14.505 -9.367,-14.447L-9.81,-13.748L-6.707,-11.257C-6.599,-11.171 -6.479,-11.128 -6.405,-11.22C-6.358,-11.279 -6.395,-11.351 -6.467,-11.453L-6.707,-11.774C-6.754,-11.834 -6.772,-11.913 -6.678,-12.031L-3.715,-15.723C-3.621,-15.841 -3.539,-15.84 -3.471,-15.807L-3.105,-15.643C-2.991,-15.594 -2.911,-15.573 -2.865,-15.633C-2.791,-15.724 -2.858,-15.832 -2.967,-15.919L-6.121,-18.45L-6.926,-17.858C-7.017,-17.791 -7.095,-17.736 -7.143,-17.677C-7.19,-17.618 -7.176,-17.488 -7.111,-17.436C-7.024,-17.367 -6.931,-17.367 -6.84,-17.391L-6.074,-17.594C-5.988,-17.611 -5.881,-17.612 -5.802,-17.549L-4.492,-16.497C-4.391,-16.416 -4.375,-16.318 -4.448,-16.226L-5.772,-14.576L-7.018,-15.575C-7.126,-15.662 -7.177,-15.746 -7.127,-15.867L-7.006,-16.18C-6.97,-16.269 -6.982,-16.343 -7.061,-16.407C-7.177,-16.499 -7.241,-16.508 -7.33,-16.397L-8.202,-15.309C-8.292,-15.198 -8.269,-15.138 -8.154,-15.045M-46.388,61.844L-48.041,61.258C-48.146,61.22 -48.209,61.26 -48.231,61.324C-48.265,61.418 -48.227,61.477 -48.116,61.551L-47.819,61.764C-47.758,61.812 -47.737,61.864 -47.768,61.951L-49.024,65.487C-49.276,66.199 -50.045,66.46 -50.898,66.157C-51.777,65.846 -52.208,65.158 -51.956,64.446L-50.7,60.911C-50.67,60.823 -50.621,60.796 -50.543,60.797L-50.178,60.819C-50.046,60.831 -49.979,60.81 -49.945,60.715C-49.923,60.652 -49.947,60.581 -50.051,60.544L-51.861,59.901C-51.957,59.868 -52.04,59.882 -52.063,59.946C-52.088,60.017 -52.081,60.108 -51.962,60.186L-51.613,60.417C-51.549,60.457 -51.51,60.542 -51.541,60.629L-52.757,64.055C-53.195,65.289 -52.25,66.212 -51.153,66.601C-50.066,66.988 -48.749,66.867 -48.311,65.633L-47.095,62.208C-47.064,62.121 -46.981,62.08 -46.906,62.088L-46.489,62.129C-46.348,62.144 -46.285,62.077 -46.259,62.006C-46.237,61.942 -46.292,61.878 -46.388,61.844M-17.554,-18.338L-16.346,-17.68L-12.245,-20.942L-12.884,-15.794L-11.675,-15.136C-11.53,-15.057 -11.433,-15.08 -11.404,-15.132C-11.36,-15.213 -11.381,-15.272 -11.515,-15.393L-11.677,-15.539C-11.775,-15.63 -11.852,-15.72 -11.788,-15.838C-11.731,-15.941 -11.651,-16.03 -11.591,-16.122L-8.989,-19.857C-8.949,-19.912 -8.88,-19.922 -8.767,-19.898L-8.451,-19.841C-8.297,-19.815 -8.237,-19.829 -8.204,-19.888C-8.16,-19.969 -8.193,-20.044 -8.298,-20.102L-9.798,-20.919C-9.879,-20.963 -10.001,-20.972 -10.041,-20.898C-10.081,-20.824 -10.041,-20.764 -9.926,-20.645L-9.699,-20.406C-9.614,-20.312 -9.59,-20.26 -9.617,-20.209C-9.658,-20.135 -9.734,-20.033 -9.794,-19.942L-12.086,-16.564L-12.102,-16.573L-11.379,-21.78L-11.826,-22.023L-16.026,-18.653L-16.043,-18.662L-14.323,-22.361C-14.283,-22.453 -14.243,-22.547 -14.206,-22.612C-14.15,-22.716 -14.077,-22.752 -13.964,-22.729L-13.624,-22.658C-13.454,-22.623 -13.382,-22.641 -13.337,-22.722C-13.309,-22.774 -13.317,-22.836 -13.414,-22.889L-15.117,-23.816C-15.223,-23.873 -15.304,-23.86 -15.348,-23.779C-15.38,-23.72 -15.352,-23.637 -15.254,-23.546L-14.994,-23.29C-14.933,-23.228 -14.921,-23.173 -14.948,-23.103L-16.748,-18.931C-16.792,-18.831 -16.832,-18.719 -16.888,-18.616C-16.944,-18.512 -17.078,-18.518 -17.215,-18.555L-17.425,-18.612C-17.617,-18.668 -17.665,-18.637 -17.705,-18.563C-17.733,-18.512 -17.7,-18.417 -17.554,-18.338M-39.065,63.214L-40.741,62.933C-40.85,62.914 -40.905,62.964 -40.916,63.031C-40.933,63.13 -40.885,63.181 -40.764,63.235L-40.434,63.393C-40.366,63.43 -40.336,63.477 -40.352,63.569L-41.026,67.574L-41.044,67.571L-43.773,62.422L-44.965,62.221C-45.065,62.205 -45.145,62.233 -45.156,62.3C-45.169,62.374 -45.147,62.463 -45.016,62.519L-44.632,62.686C-44.562,62.715 -44.509,62.792 -44.524,62.883L-45.324,67.634C-45.34,67.725 -45.415,67.78 -45.49,67.784L-45.907,67.817C-46.05,67.827 -46.1,67.903 -46.113,67.978C-46.124,68.044 -46.058,68.098 -45.958,68.115L-44.283,68.397C-44.173,68.415 -44.118,68.365 -44.107,68.298C-44.09,68.199 -44.138,68.149 -44.26,68.094L-44.589,67.936C-44.658,67.899 -44.687,67.852 -44.671,67.761L-43.982,63.663L-43.964,63.666L-41.15,68.924L-40.595,69.018L-39.699,63.695C-39.683,63.604 -39.609,63.549 -39.533,63.544L-39.116,63.512C-38.974,63.503 -38.923,63.426 -38.911,63.351C-38.9,63.285 -38.965,63.231 -39.065,63.214M-36.707,34.218C-37.531,34.218 -38.317,34.172 -39.083,34.104L-39.083,35.914C-39.083,36.719 -39.255,36.931 -39.944,37.099L-42.357,37.65C-43.048,37.821 -43.333,38.032 -43.333,38.413C-43.333,38.921 -42.876,39.133 -41.725,39.133L-30.924,39.133C-29.947,39.133 -29.487,38.921 -29.487,38.413C-29.487,38.073 -29.717,37.862 -30.235,37.735L-32.418,37.227C-33.338,36.972 -33.51,36.804 -33.51,35.914L-33.51,34.005C-34.522,34.138 -35.582,34.218 -36.707,34.218" style="fill:rgb(0,90,130);fill-rule:nonzero;"/>
                </g>
                <g transform="matrix(1,0,0,1,271.577,153.243)">
                    <path d="M0,22.986C0.766,23.055 1.552,23.1 2.375,23.1C3.501,23.1 4.561,23.02 5.573,22.888C9.159,22.414 12.018,21.124 13.929,19.075C15.273,17.611 15.745,16.496 15.863,14.259C14.513,14.595 13.059,14.802 11.535,14.861C11.416,16.01 11.079,16.884 10.415,17.677C9.374,19.007 7.675,19.914 5.573,20.347C4.663,20.535 3.687,20.641 2.642,20.641C1.714,20.641 0.829,20.564 0,20.422C-2.594,19.98 -4.616,18.88 -5.504,17.337C-5.983,16.406 -6.197,15.474 -6.197,13.948L-6.197,-4.309C-6.197,-5.24 -6.143,-5.326 -5.185,-5.579L-3.321,-6.045C-2.629,-6.215 -2.31,-6.468 -2.31,-6.892C-2.31,-7.442 -2.629,-7.613 -3.854,-7.613L-14.396,-7.613C-15.141,-7.613 -15.513,-7.401 -15.513,-6.934C-15.513,-6.553 -15.248,-6.341 -14.662,-6.172L-12.426,-5.579C-11.574,-5.326 -11.414,-5.114 -11.414,-4.266L-11.414,13.78C-11.414,18.897 -6.992,22.351 0,22.986M8.444,-6.088L10.575,-5.494C11.373,-5.283 11.586,-5.028 11.586,-4.224L11.586,12.375C13.267,12.323 14.727,11.966 15.899,11.347L15.899,-4.393C15.899,-5.198 16.057,-5.367 16.804,-5.579L18.879,-6.045C19.519,-6.172 19.837,-6.468 19.837,-6.892C19.837,-7.358 19.413,-7.613 18.561,-7.613L9.03,-7.613C8.018,-7.613 7.593,-7.401 7.593,-6.892C7.593,-6.512 7.913,-6.215 8.444,-6.088M28.613,29.303C28.589,29.287 28.529,29.273 28.478,29.259C28.297,29.215 28.117,29.314 28.073,29.487C28.03,29.658 28.148,29.843 28.32,29.887L28.38,29.901L29.96,30.126C30.076,30.137 30.136,30.115 30.156,30.038C30.175,29.961 30.136,29.896 30.046,29.855L28.613,29.303ZM32.571,33.249L31.156,31.038L31.167,31.025L33.618,31.937L32.571,33.249ZM36.378,31.731L36.111,31.905C36.061,31.941 35.989,31.937 35.914,31.909L30.496,30.007L30.136,30.46L33.095,35.19C33.224,35.379 33.248,35.484 33.228,35.522L33.103,35.841C33.043,35.997 33.056,36.061 33.109,36.103C33.168,36.15 33.245,36.147 33.313,36.062L34.25,34.887C34.317,34.802 34.308,34.719 34.243,34.667C34.19,34.625 34.125,34.626 34.008,34.705L33.751,34.866C33.707,34.895 33.645,34.878 33.613,34.852C33.58,34.825 33.53,34.753 33.501,34.709L32.913,33.79L34.221,32.149L35.304,32.54C35.361,32.563 35.411,32.582 35.43,32.598C35.47,32.629 35.486,32.662 35.463,32.731L35.394,32.966C35.339,33.157 35.327,33.213 35.379,33.255C35.438,33.301 35.521,33.292 35.589,33.207L36.64,31.887C36.693,31.822 36.707,31.736 36.635,31.679C36.569,31.627 36.494,31.653 36.378,31.731M20.883,-18.743C20.915,-18.811 20.87,-18.871 20.786,-18.948L20.512,-19.192C20.46,-19.237 20.429,-19.307 20.494,-19.444L22.552,-23.707C22.618,-23.843 22.692,-23.863 22.761,-23.849L23.121,-23.786C23.234,-23.769 23.31,-23.77 23.342,-23.838C23.394,-23.944 23.314,-24.029 23.2,-24.084L19.889,-25.682L19.258,-24.915C19.188,-24.828 19.125,-24.756 19.092,-24.687C19.059,-24.62 19.095,-24.5 19.163,-24.467C19.253,-24.423 19.339,-24.447 19.418,-24.493L20.081,-24.881C20.155,-24.92 20.252,-24.948 20.335,-24.908L21.711,-24.243C21.817,-24.192 21.848,-24.103 21.798,-23.997L20.878,-22.092L19.57,-22.724C19.456,-22.778 19.395,-22.845 19.42,-22.973L19.476,-23.3C19.493,-23.394 19.47,-23.462 19.387,-23.502C19.266,-23.56 19.206,-23.552 19.143,-23.423L18.538,-22.168C18.476,-22.04 18.507,-21.988 18.627,-21.93C18.711,-21.889 18.778,-21.913 18.841,-21.985L19.063,-22.232C19.148,-22.331 19.237,-22.324 19.351,-22.27L20.659,-21.639L19.717,-19.688L18.16,-20.44C18.077,-20.48 18.05,-20.54 18.049,-20.615L18.061,-21.122C18.066,-21.25 18.024,-21.317 17.963,-21.346C17.865,-21.393 17.75,-21.328 17.706,-21.237C17.677,-21.177 17.648,-21.116 17.626,-21.052L17.344,-20.275L20.602,-18.702C20.715,-18.648 20.832,-18.638 20.883,-18.743M22.862,-17.452C22.797,-17.354 22.864,-17.258 22.968,-17.188L24.335,-16.272C24.44,-16.202 24.553,-16.176 24.619,-16.273C24.661,-16.336 24.624,-16.401 24.552,-16.49L24.315,-16.77C24.269,-16.821 24.248,-16.896 24.333,-17.021L26.97,-20.952C27.054,-21.078 27.132,-21.087 27.196,-21.063L27.545,-20.951C27.655,-20.918 27.729,-20.908 27.771,-20.971C27.837,-21.068 27.77,-21.164 27.665,-21.234L24.689,-23.231L23.956,-22.561C23.874,-22.484 23.802,-22.421 23.759,-22.359C23.717,-22.296 23.735,-22.173 23.799,-22.13C23.882,-22.074 23.97,-22.085 24.055,-22.12L24.765,-22.412C24.844,-22.439 24.944,-22.453 25.022,-22.401L26.213,-21.602C26.311,-21.536 26.329,-21.443 26.263,-21.345L23.663,-17.47C23.579,-17.345 23.502,-17.336 23.437,-17.359L23.088,-17.472C22.979,-17.505 22.904,-17.514 22.862,-17.452M29.965,-16.209L27.661,-14.951L27.649,-14.962L28.729,-17.344L29.965,-16.209ZM28.871,-19.833C28.903,-19.781 28.894,-19.709 28.862,-19.636L26.587,-14.364L27.014,-13.973L31.939,-16.597C32.136,-16.712 32.243,-16.728 32.279,-16.706L32.588,-16.559C32.74,-16.488 32.804,-16.498 32.85,-16.546C32.902,-16.602 32.904,-16.679 32.824,-16.753L31.716,-17.769C31.636,-17.843 31.553,-17.839 31.496,-17.777C31.451,-17.728 31.448,-17.662 31.519,-17.54L31.661,-17.273C31.686,-17.227 31.665,-17.167 31.637,-17.136C31.608,-17.105 31.533,-17.06 31.487,-17.034L30.529,-16.512L28.982,-17.931L29.448,-18.984C29.475,-19.039 29.497,-19.087 29.514,-19.106C29.549,-19.143 29.583,-19.156 29.65,-19.13L29.879,-19.044C30.066,-18.976 30.12,-18.96 30.166,-19.009C30.217,-19.065 30.214,-19.148 30.133,-19.222L28.89,-20.362C28.828,-20.419 28.744,-20.439 28.682,-20.371C28.625,-20.309 28.646,-20.233 28.717,-20.111L28.871,-19.833ZM31.186,-10.113L30.79,-10.613C30.284,-11.251 30.421,-11.767 30.974,-12.205C31.625,-12.721 32.283,-12.472 32.685,-11.966L33.008,-11.558L31.186,-10.113ZM33.448,-15.421C33.469,-15.352 33.469,-15.298 33.438,-15.231L32.362,-12.899C31.787,-13.246 30.973,-13.233 30.466,-12.831C29.625,-12.163 29.587,-11.319 30.333,-10.379L31.554,-8.84C31.632,-8.741 31.732,-8.682 31.825,-8.755C31.884,-8.802 31.868,-8.876 31.827,-8.981L31.686,-9.32C31.658,-9.383 31.661,-9.461 31.779,-9.555L35.489,-12.497C35.607,-12.591 35.682,-12.576 35.737,-12.534L36.035,-12.32C36.13,-12.255 36.198,-12.224 36.257,-12.271C36.349,-12.344 36.314,-12.456 36.236,-12.554L35.197,-13.863C35.135,-13.942 35.063,-13.938 35.011,-13.896C34.932,-13.833 34.93,-13.768 34.977,-13.655L35.096,-13.343C35.118,-13.274 35.106,-13.222 34.987,-13.128L33.403,-11.871L33.011,-12.364L34.263,-15.04L33.529,-15.967C33.481,-16.026 33.409,-16.064 33.343,-16.012C33.27,-15.955 33.27,-15.901 33.344,-15.713L33.448,-15.421ZM38.299,-8.422C38.84,-7.436 38.408,-6.319 36.943,-5.517C35.456,-4.702 34.236,-5.077 33.765,-5.938C33.224,-6.925 33.656,-8.041 35.121,-8.844C36.607,-9.658 37.827,-9.283 38.299,-8.422M33.323,-5.696C34.105,-4.268 35.928,-3.927 37.379,-4.721C38.88,-5.544 39.588,-7.118 38.741,-8.664C37.959,-10.092 36.135,-10.433 34.685,-9.639C33.184,-8.816 32.476,-7.243 33.323,-5.696M35.686,-2.122C35.653,-2.217 35.672,-2.268 35.729,-2.332L36.139,-2.766C36.232,-2.859 36.274,-2.944 36.23,-3.072C36.195,-3.175 36.088,-3.227 35.961,-3.183C35.866,-3.15 35.776,-3.102 35.686,-3.054L34.97,-2.658L36.33,1.313L37.138,1.186C37.239,1.17 37.34,1.153 37.435,1.12C37.562,1.077 37.615,0.97 37.58,0.867C37.536,0.74 37.45,0.698 37.32,0.681L36.73,0.59C36.645,0.575 36.599,0.546 36.567,0.451L36.257,-0.454L40.847,-2.027C40.989,-2.076 41.057,-2.036 41.094,-1.978L41.304,-1.677C41.371,-1.585 41.424,-1.532 41.495,-1.557C41.607,-1.595 41.611,-1.712 41.571,-1.831L41.037,-3.387C40.996,-3.506 40.921,-3.597 40.81,-3.558C40.739,-3.534 40.728,-3.459 40.733,-3.345L40.751,-2.979C40.757,-2.91 40.728,-2.838 40.586,-2.789L35.996,-1.217L35.686,-2.122ZM36.967,2.458L36.795,2.135C36.739,2.035 36.693,1.976 36.619,1.992C36.504,2.017 36.486,2.132 36.512,2.255L36.855,3.864C36.882,3.987 36.945,4.085 37.06,4.061C37.134,4.045 37.153,3.972 37.163,3.859L37.188,3.492C37.191,3.423 37.227,3.356 37.375,3.324L42.005,2.336C42.153,2.304 42.214,2.351 42.245,2.413L42.417,2.737C42.472,2.836 42.519,2.895 42.594,2.879C42.708,2.855 42.726,2.739 42.7,2.616L42.357,1.007C42.33,0.884 42.266,0.786 42.152,0.811C42.078,0.827 42.059,0.899 42.048,1.013L42.024,1.379C42.022,1.448 41.985,1.516 41.837,1.547L37.206,2.536C37.06,2.567 36.998,2.521 36.967,2.458M41.744,4.052C41.668,4.059 41.584,4.152 41.591,4.227C41.602,4.327 41.667,4.388 41.747,4.431L42.424,4.794C42.496,4.838 42.57,4.907 42.579,4.999L42.72,6.427C42.731,6.544 42.671,6.617 42.554,6.628L37.909,7.086C37.759,7.101 37.703,7.048 37.68,6.983L37.545,6.642C37.501,6.536 37.461,6.473 37.387,6.481C37.269,6.492 37.238,6.605 37.251,6.73L37.412,8.367C37.424,8.493 37.476,8.597 37.593,8.585C37.669,8.578 37.696,8.508 37.718,8.396L37.784,8.035C37.794,7.967 37.838,7.903 37.989,7.889L42.7,7.424C42.85,7.409 42.906,7.463 42.929,7.528L43.064,7.869C43.109,7.974 43.149,8.037 43.223,8.03C43.341,8.019 43.372,7.906 43.359,7.781L43.007,4.214L42.024,4.075C41.913,4.061 41.818,4.044 41.744,4.052M42.14,12.06C42.064,12.052 41.962,12.125 41.955,12.199C41.943,12.3 41.994,12.373 42.063,12.431L42.648,12.929C42.709,12.987 42.768,13.07 42.757,13.161L42.594,14.588C42.581,14.704 42.506,14.763 42.389,14.75L37.753,14.22C37.603,14.203 37.559,14.139 37.551,14.07L37.49,13.709C37.469,13.597 37.444,13.526 37.369,13.518C37.252,13.504 37.197,13.608 37.183,13.733L36.997,15.367C36.983,15.493 37.011,15.606 37.129,15.619C37.204,15.628 37.245,15.565 37.291,15.46L37.431,15.121C37.455,15.056 37.512,15.004 37.662,15.021L42.365,15.558C42.515,15.575 42.558,15.639 42.567,15.708L42.627,16.069C42.648,16.182 42.674,16.252 42.749,16.261C42.866,16.274 42.92,16.171 42.934,16.046L43.341,12.484L42.408,12.141C42.303,12.104 42.214,12.069 42.14,12.06M41.458,17.358C41.385,17.339 41.274,17.397 41.255,17.47C41.23,17.568 41.27,17.647 41.33,17.715L41.838,18.29C41.891,18.356 41.937,18.446 41.914,18.535L41.528,20.013C41.498,20.127 41.416,20.175 41.303,20.145L39.256,19.612L39.623,18.206C39.654,18.085 39.708,18.012 39.838,18.011L40.17,18.002C40.266,18.001 40.328,17.965 40.351,17.876C40.385,17.746 40.365,17.689 40.226,17.652L38.879,17.301C38.741,17.265 38.696,17.305 38.661,17.435C38.638,17.524 38.674,17.585 38.758,17.634L39.043,17.803C39.156,17.868 39.167,17.957 39.135,18.079L38.769,19.484L36.673,18.937L37.111,17.264C37.133,17.175 37.186,17.137 37.26,17.121L37.759,17.035C37.887,17.016 37.944,16.961 37.961,16.896C37.988,16.791 37.902,16.69 37.805,16.665C37.739,16.648 37.675,16.631 37.608,16.622L36.79,16.495L35.877,19.996C35.845,20.118 35.857,20.234 35.971,20.263C36.044,20.283 36.094,20.226 36.154,20.129L36.34,19.813C36.374,19.753 36.437,19.708 36.584,19.746L41.164,20.942C41.31,20.98 41.344,21.05 41.343,21.119L41.352,21.486C41.357,21.6 41.372,21.673 41.445,21.692C41.559,21.722 41.627,21.627 41.659,21.505L42.588,17.948L41.713,17.476C41.614,17.425 41.531,17.377 41.458,17.358M39.45,25.739L39.156,26.398C39.108,26.505 39.019,26.539 38.912,26.491L34.543,24.54L34.876,23.797C35.283,22.885 36.388,22.304 37.922,22.987C39.255,23.583 39.916,24.697 39.45,25.739M38.298,22.163C36.949,21.561 35.179,21.883 34.429,23.562L33.584,25.454C33.533,25.569 33.527,25.686 33.633,25.734C33.703,25.765 33.761,25.717 33.836,25.631L34.072,25.35C34.115,25.295 34.184,25.262 34.323,25.324L38.645,27.254C38.783,27.316 38.805,27.39 38.793,27.458L38.741,27.821C38.727,27.935 38.73,28.01 38.8,28.04C38.907,28.089 38.99,28.006 39.041,27.891L39.893,25.983C40.557,24.496 39.9,22.879 38.298,22.163M31.729,37.156L31.403,37.325C31.343,37.359 31.266,37.363 31.163,37.253L27.828,33.73L28.523,33.072C28.595,33.002 28.649,32.998 28.731,33.025L29.296,33.218C29.42,33.263 29.515,33.265 29.612,33.173C29.691,33.098 29.695,32.979 29.603,32.882C29.533,32.809 29.452,32.747 29.371,32.686L28.713,32.199L25.665,35.083L26.115,35.766C26.172,35.852 26.229,35.936 26.298,36.009C26.391,36.107 26.509,36.11 26.589,36.035C26.686,35.943 26.689,35.848 26.65,35.722L26.489,35.147C26.467,35.064 26.474,35.01 26.547,34.941L27.242,34.283L30.577,37.807C30.681,37.917 30.673,37.994 30.636,38.052L30.448,38.367C30.392,38.467 30.367,38.538 30.419,38.593C30.499,38.678 30.608,38.633 30.7,38.547L31.894,37.416C31.986,37.33 32.036,37.224 31.955,37.139C31.903,37.084 31.831,37.106 31.729,37.156M28.316,40.16L27.973,40.29C27.909,40.317 27.832,40.311 27.741,40.19L24.915,36.393C24.826,36.271 24.842,36.196 24.886,36.142L25.109,35.852C25.177,35.759 25.21,35.692 25.164,35.631C25.095,35.537 24.982,35.569 24.881,35.644L23.562,36.626C23.46,36.701 23.398,36.799 23.468,36.894C23.513,36.955 23.587,36.942 23.695,36.903L24.038,36.774C24.102,36.747 24.179,36.752 24.269,36.874L27.096,40.671C27.185,40.792 27.168,40.868 27.125,40.922L26.902,41.213C26.834,41.305 26.801,41.372 26.846,41.432C26.916,41.527 27.029,41.495 27.129,41.42L28.449,40.438C28.55,40.363 28.613,40.264 28.542,40.169C28.497,40.109 28.424,40.122 28.316,40.16M23.498,40.101L22.164,40.118C21.728,40.122 21.347,39.938 21.172,39.641C20.878,39.143 21.173,38.618 21.62,38.354C21.954,38.157 22.269,38.098 22.479,38.257L22.857,38.551C22.981,38.643 23.081,38.681 23.182,38.622C23.276,38.566 23.317,38.454 23.241,38.324C23.215,38.281 23.177,38.216 23.139,38.169L22.67,37.521C22.214,37.526 21.72,37.711 21.336,37.937C20.642,38.346 20.056,39.237 20.619,40.191C20.951,40.755 21.444,40.962 22.099,40.965L23.469,40.976C23.781,40.977 24.206,41.136 24.386,41.439C24.731,42.025 24.471,42.675 23.972,42.97C23.51,43.243 23.267,43.229 23.034,43.065L22.451,42.668C22.336,42.59 22.248,42.524 22.14,42.588C22.031,42.652 22.026,42.743 22.102,42.873C22.128,42.916 22.167,42.981 22.203,43.028L22.835,43.835C23.31,43.847 23.83,43.638 24.235,43.399C25.153,42.858 25.458,41.674 24.994,40.886C24.666,40.329 24.108,40.093 23.498,40.101M18.167,42.778L17.687,42.978L16.795,40.831L17.384,40.586C18.136,40.274 18.595,40.547 18.865,41.198C19.183,41.965 18.764,42.531 18.167,42.778M21.591,44.437L21.282,44.457C21.211,44.459 21.158,44.445 21.102,44.395L19.153,42.723C19.644,42.265 19.854,41.478 19.606,40.881C19.194,39.889 18.392,39.622 17.284,40.082L15.47,40.835C15.354,40.884 15.269,40.965 15.314,41.073C15.343,41.143 15.418,41.148 15.532,41.137L15.896,41.095C15.964,41.085 16.037,41.109 16.096,41.248L17.911,45.62C17.969,45.76 17.934,45.829 17.879,45.87L17.592,46.098C17.504,46.171 17.455,46.228 17.484,46.298C17.529,46.406 17.646,46.403 17.762,46.355L19.305,45.714C19.397,45.676 19.413,45.605 19.388,45.543C19.349,45.45 19.287,45.431 19.165,45.445L18.832,45.474C18.761,45.477 18.713,45.451 18.655,45.311L17.88,43.443L18.461,43.202L20.692,45.138L21.785,44.684C21.855,44.655 21.912,44.595 21.88,44.518C21.844,44.433 21.792,44.417 21.591,44.437M15.871,45.688C15.852,45.615 15.749,45.545 15.675,45.564C15.578,45.588 15.526,45.661 15.496,45.747L15.235,46.469C15.203,46.547 15.145,46.63 15.056,46.653L13.574,47.022C13.46,47.051 13.379,47.002 13.35,46.888L12.837,44.836L14.247,44.484C14.369,44.454 14.458,44.466 14.521,44.58L14.688,44.867C14.735,44.951 14.796,44.987 14.886,44.965C15.016,44.932 15.056,44.887 15.022,44.749L14.685,43.397C14.65,43.258 14.593,43.238 14.463,43.271C14.373,43.293 14.336,43.354 14.334,43.45L14.322,43.781C14.32,43.912 14.247,43.965 14.124,43.995L12.716,44.347L12.191,42.246L13.868,41.827C13.958,41.805 14.017,41.834 14.066,41.89L14.382,42.287C14.459,42.389 14.534,42.414 14.599,42.397C14.705,42.371 14.752,42.247 14.728,42.149C14.711,42.084 14.695,42.019 14.67,41.956L14.39,41.178L10.88,42.054C10.758,42.085 10.662,42.152 10.691,42.266C10.709,42.339 10.782,42.356 10.896,42.362L11.263,42.374C11.332,42.374 11.401,42.409 11.437,42.555L12.585,47.149C12.621,47.295 12.576,47.358 12.516,47.391L12.198,47.574C12.1,47.632 12.043,47.682 12.061,47.755C12.09,47.869 12.205,47.883 12.328,47.853L15.895,46.962L15.889,45.968C15.887,45.857 15.889,45.761 15.871,45.688M10.218,42.201L8.739,42.334C8.63,42.344 8.577,42.408 8.582,42.467C8.59,42.559 8.637,42.605 8.705,42.615L8.952,42.644C9.097,42.664 9.155,42.744 9.159,42.793C9.164,42.844 9.151,42.887 9.139,42.939L8.113,47.178L8.096,47.179L6.369,43.248C6.347,43.199 6.317,43.142 6.312,43.084C6.306,43.017 6.325,42.948 6.544,42.861L6.716,42.795C6.781,42.773 6.818,42.718 6.81,42.626C6.804,42.568 6.741,42.514 6.632,42.524L4.902,42.68C4.818,42.688 4.746,42.737 4.755,42.829C4.763,42.912 4.833,42.948 4.97,42.977L5.176,43.018C5.348,43.053 5.405,43.115 5.509,43.342L7.86,48.473L8.353,48.429L9.8,42.795C9.818,42.718 9.855,42.655 9.912,42.633L10.204,42.506C10.334,42.452 10.397,42.404 10.389,42.32C10.381,42.228 10.302,42.194 10.218,42.201M4.302,42.691L2.657,42.635C2.532,42.631 2.421,42.669 2.417,42.787C2.414,42.862 2.481,42.898 2.589,42.935L2.937,43.048C3.004,43.067 3.061,43.119 3.056,43.27L2.896,48.002C2.891,48.153 2.831,48.201 2.763,48.216L2.408,48.304C2.297,48.334 2.229,48.366 2.226,48.441C2.223,48.559 2.33,48.604 2.456,48.608L4.1,48.664C4.226,48.668 4.336,48.63 4.34,48.512C4.343,48.437 4.277,48.401 4.169,48.364L3.82,48.251C3.753,48.232 3.697,48.18 3.702,48.029L3.861,43.298C3.867,43.147 3.927,43.098 3.994,43.084L4.35,42.995C4.46,42.965 4.528,42.934 4.531,42.858C4.535,42.741 4.428,42.695 4.302,42.691M1.874,42.564L0.352,42.303C0.253,42.286 0.202,42.337 0.19,42.403C0.174,42.502 0.216,42.552 0.326,42.605L0.624,42.758C0.685,42.794 0.711,42.841 0.696,42.933L0.011,46.937L-0.006,46.934L-2.403,41.832L-3.487,41.647C-3.577,41.631 -3.651,41.661 -3.662,41.727C-3.675,41.801 -3.656,41.89 -3.537,41.944L-3.19,42.106C-3.127,42.134 -3.081,42.21 -3.096,42.301L-3.908,47.05C-3.924,47.141 -3.993,47.197 -4.062,47.202L-4.443,47.239C-4.573,47.251 -4.62,47.328 -4.633,47.403C-4.644,47.469 -4.585,47.522 -4.494,47.537L-2.972,47.798C-2.873,47.815 -2.821,47.764 -2.81,47.697C-2.793,47.598 -2.836,47.549 -2.946,47.496L-3.243,47.342C-3.305,47.306 -3.331,47.259 -3.316,47.168L-2.615,43.072L-2.599,43.075L-0.126,48.285L0.379,48.371L1.289,43.051C1.304,42.96 1.374,42.903 1.442,42.898L1.823,42.861C1.953,42.849 2.001,42.773 2.013,42.698C2.024,42.632 1.966,42.579 1.874,42.564M-4.139,41.777C-4.009,41.789 -3.949,41.721 -3.923,41.65C-3.9,41.588 -3.948,41.525 -4.035,41.493L-5.532,40.943C-5.626,40.909 -5.686,40.949 -5.709,41.012C-5.744,41.107 -5.711,41.163 -5.613,41.235L-5.348,41.44C-5.294,41.487 -5.276,41.538 -5.308,41.625L-6.602,45.147C-6.862,45.856 -7.579,46.129 -8.352,45.845C-9.147,45.553 -9.517,44.88 -9.257,44.171L-7.963,40.649C-7.932,40.563 -7.886,40.535 -7.814,40.534L-7.48,40.55C-7.358,40.559 -7.296,40.537 -7.262,40.442C-7.238,40.379 -7.257,40.31 -7.352,40.275L-8.991,39.673C-9.077,39.641 -9.155,39.657 -9.178,39.72C-9.204,39.791 -9.202,39.882 -9.095,39.956L-8.783,40.178C-8.726,40.217 -8.694,40.3 -8.726,40.387L-9.979,43.799C-10.43,45.028 -9.597,45.924 -8.604,46.289C-7.62,46.651 -6.404,46.506 -5.953,45.278L-4.699,41.866C-4.668,41.779 -4.589,41.737 -4.52,41.744L-4.139,41.777Z" style="fill:rgb(195,185,182);fill-rule:nonzero;"/>
                </g>
            </g>
        </g>
    </g>
</svg>
